<svg width="657" height="280" viewBox="0 0 657 280" fill="none" xmlns="http://www.w3.org/2000/svg">
<g clip-path="url(#clip0_3067_72)">
<path d="M322.632 250.959V231.325L326.318 231.449L329.964 231.572L330.089 232.866L330.213 234.199L332.311 232.821C336.793 229.778 343.622 230.571 348.315 234.655C352.255 238.114 353.804 244.993 351.961 250.994C351.209 253.536 350.706 254.369 348.693 256.371C343.876 261.163 336.918 261.956 332.056 258.289L330.592 257.164V263.834V270.544H326.612H322.632V250.949V250.959ZM341.276 252.709C344.295 250.999 345.426 245.082 343.453 241.33C342.068 238.788 339.852 237.539 337.003 237.747C332.898 238.04 330.383 241.082 330.423 245.795C330.463 251.926 336.206 255.548 341.276 252.714V252.709Z" fill="#FFFFFE"/>
<path d="M514.537 250.959V231.364H518.308H522.078V232.821C522.078 234.407 522.497 234.655 523.378 233.614C524.718 231.989 527.234 231.156 530.88 231.156C533.938 231.156 534.775 231.324 536.832 232.326C542.491 235.076 545.589 241.623 544.334 248.293C543.706 251.752 542.66 253.838 540.309 256.341C535.995 260.925 529.415 261.887 524.599 258.675L522.502 257.298L522.417 263.8L522.293 270.346L518.437 270.47L514.542 270.594V250.959H514.537ZM532.429 253.001C537.455 250.583 537.958 242.118 533.311 238.788C532.18 237.995 531.383 237.831 529.077 237.831C526.268 237.831 526.188 237.871 524.594 239.541C520.654 243.754 521.62 250.92 526.397 253.09C528.658 254.091 530.208 254.091 532.429 253.006V253.001Z" fill="#FFFFFE"/>
<path d="M73.0322 259.924C68.8829 258.675 65.2368 255.548 63.5184 251.836C62.8061 250.295 62.6367 249.126 62.6367 245.959C62.6367 242.292 62.7612 241.747 64.0214 239.165C69.2167 228.703 85.5993 228.158 91.1731 238.208C94.4407 244.086 93.8131 250.84 89.5393 255.424C87.4423 257.674 85.5993 258.928 82.795 259.845C80.3244 260.678 75.5476 260.722 73.0322 259.929V259.924ZM79.8213 253.422C82.1276 252.838 84.4736 250.419 84.892 248.253C85.689 243.878 84.1797 239.958 81.0367 238.456C75.5476 235.79 69.6799 240.622 70.6462 247.044C71.1095 250.171 73.4107 252.798 76.3047 253.462C77.1017 253.63 77.7691 253.794 77.8538 253.839C77.9385 253.878 78.8152 253.67 79.8213 253.422Z" fill="#FFFFFE"/>
<path d="M166.975 259.548C163.707 258.046 161.316 254.755 161.316 251.792C161.316 248.997 163.578 245.706 166.511 244.165C167.976 243.417 169.067 243.248 174.137 243.124L180.045 242.956L179.751 241.499C179.542 240.706 179.079 239.705 178.66 239.249C176.902 237.291 171.537 237.207 167.851 239.08C166.721 239.665 165.754 240.081 165.714 240.037C165.675 239.952 164.962 238.788 164.12 237.45C162.317 234.531 162.447 234.239 165.754 232.782C173.047 229.57 182.809 230.903 185.868 235.532C187.88 238.535 188.129 240.324 188.129 250.622V260.127H184.358H180.588V258.626V257.169L179.203 258.21C175.891 260.712 170.695 261.292 166.97 259.543L166.975 259.548ZM177.031 254.126C178.75 253.378 180.174 251.252 180.174 249.373V247.956L175.816 248.125C171.876 248.248 171.333 248.333 170.367 249.249C168.648 250.875 169.027 253.041 171.164 254.21C172.339 254.879 175.353 254.835 177.031 254.126Z" fill="#FFFFFE"/>
<path d="M268.917 259.756C265.689 258.715 263.179 257.169 260.912 254.919C256.888 250.959 255.383 246.747 255.677 240.493C255.847 236.91 256.056 236.072 257.396 233.282C259.866 228.074 264.519 224.238 270.008 222.776C273.151 221.943 278.889 222.028 281.947 222.984C284.712 223.817 287.939 225.734 289.533 227.36L290.495 228.401L288.273 230.403C285.045 233.322 285.175 233.277 282.699 231.612C275.786 226.899 266.86 230.026 264.558 237.906C262.506 244.908 266.571 251.703 273.524 253.041C276.707 253.625 279.601 252.956 282.575 250.954C283.915 249.998 285.175 249.329 285.339 249.368C285.509 249.453 286.724 250.493 288.064 251.703L290.45 253.868L288.647 255.578C287.641 256.495 285.379 257.952 283.701 258.789C280.727 260.246 280.348 260.331 275.95 260.415C272.304 260.499 270.755 260.375 268.912 259.746L268.917 259.756Z" fill="#FFFFFE"/>
<path d="M366.755 259.8C362.521 258.299 359.756 255.796 357.873 251.797C356.952 249.839 356.782 248.922 356.782 245.751C356.782 242.584 356.992 241.623 357.913 239.665C360.259 234.536 364.787 231.493 370.525 231.077C377.314 230.576 382.928 233.451 385.568 238.748C386.868 241.375 386.953 241.831 386.953 245.751C386.953 249.463 386.828 250.171 385.777 252.253C384.392 255.127 381.628 257.754 378.445 259.216C375.302 260.673 370.022 260.925 366.755 259.8ZM375.596 252.629C379.242 250.419 380.163 244.21 377.439 240.413C376.184 238.664 373.544 237.495 371.362 237.747C364.03 238.54 362.062 248.794 368.473 252.669C370.231 253.754 373.838 253.754 375.596 252.629Z" fill="#FFFFFE"/>
<path d="M455.502 259.924C443.727 256.629 438.073 243.873 443.517 232.787C448.125 223.366 460.991 219.238 470.754 224.03C473.269 225.279 476.915 228.198 476.367 228.53C476.283 228.614 475.028 229.739 473.558 231.072L470.958 233.53L469.449 232.236C467.272 230.319 465.26 229.57 461.947 229.526C454.909 229.402 450.132 234.526 450.297 242.034C450.381 248.452 455.283 253.165 461.733 253.165C464.961 253.165 466.889 252.416 469.235 250.33L470.953 248.789L473.553 251.162C475.018 252.496 476.233 253.705 476.318 253.873C476.567 254.498 472.338 257.793 469.698 259.042C467.227 260.212 466.515 260.336 462.366 260.42C459.268 260.504 457.046 260.336 455.492 259.919L455.502 259.924Z" fill="#FFFFFE"/>
<path d="M489.189 259.671C480.347 256.544 476.492 247.332 480.556 239.075C485.712 228.693 501.173 228.237 506.662 238.327C507.753 240.329 508.674 244.081 508.674 246.663V248.04H497.736H486.843L487.136 248.997C488.561 253.541 494.384 255.251 499.958 252.748L502.428 251.663L504.316 253.457C505.322 254.498 506.159 255.499 506.159 255.751C506.119 256.336 502.847 258.71 500.879 259.543C499.918 259.959 497.696 260.291 495.475 260.42C492.416 260.544 491.241 260.42 489.189 259.671ZM500.71 242.832C500.71 242.708 500.461 241.999 500.122 241.246C498.782 237.995 494.842 236.454 491.32 237.787C489.184 238.58 488.431 239.373 487.51 241.499L486.882 243.04H493.796C497.607 243.04 500.71 242.956 500.71 242.832Z" fill="#FFFFFE"/>
<path d="M627.542 259.964C624.987 259.255 621.301 256.752 619.707 254.587C617.53 251.628 616.649 248.709 616.858 244.913C616.983 242.748 617.361 240.869 617.949 239.62C619.249 236.701 622.223 233.743 625.281 232.365C627.587 231.28 628.339 231.156 632.07 231.156C635.801 231.156 636.553 231.325 638.899 232.365C640.573 233.158 642.127 234.283 643.213 235.448C644.094 236.488 644.847 237.45 644.847 237.574C644.847 237.698 643.591 238.659 642.122 239.66L639.397 241.454L637.763 239.997C632.738 235.497 625.655 237.995 624.858 244.581C624.27 249.626 627.582 253.462 632.444 253.462C634.874 253.462 636.045 253.001 638.018 251.212L639.611 249.795L642.251 251.628C643.676 252.669 644.851 253.715 644.851 253.962C644.851 254.84 641.205 257.922 638.735 259.131C636.722 260.132 635.637 260.34 632.912 260.425C631.069 260.509 628.678 260.301 627.547 259.964H627.542Z" fill="#FFFFFE"/>
<path d="M14.6643 244.205C14.6643 235.408 14.5397 226.988 14.3704 225.447L14.1213 222.612H17.6429C20.8258 222.612 21.2442 222.697 21.7473 223.569C22.081 224.069 25.1842 229.07 28.6212 234.699C32.0581 240.329 34.9919 245.082 35.1563 245.245C35.3655 245.414 38.5932 240.408 42.3639 234.115L49.2377 222.652L52.7145 222.612H56.1514V241.37V260.127H52.1715H48.1917V249.289C48.1917 243.327 48.0672 238.451 47.8978 238.451C47.6886 238.451 45.2977 242.371 42.5332 247.123L37.5073 255.751L35.4103 255.875L33.3133 255.999L28.0782 247.287L22.8431 238.575L22.6339 249.245L22.4247 259.914L18.5694 260.038L14.6742 260.162V244.195L14.6643 244.205Z" fill="#FFFFFE"/>
<path d="M98.8839 245.751V231.369H102.864H106.844V233.996C106.844 235.413 106.968 237.831 107.137 239.417L107.387 242.212H113.588H119.829V236.791V231.369H123.809H127.789V245.751V260.132H123.809H119.829V254.503V248.873H113.543H107.257V254.503V260.132H103.068H98.8789V245.751H98.8839Z" fill="#FFFFFE"/>
<path d="M141.203 249.086V238.04H136.595H131.988V234.704V231.369H145.606H159.224V234.704V238.04H154.407H149.591V249.086V260.132H145.402H141.213V249.086H141.203Z" fill="#FFFFFE"/>
<path d="M192.323 259.88C192.323 259.711 194.291 256.376 196.721 252.416L201.08 245.206L197.14 238.704C194.963 235.121 193.16 231.994 193.16 231.785C193.16 231.538 194.794 231.369 197.055 231.369H200.911L204.054 236.791L207.197 242.168L209.418 242.207H211.595V236.786V231.364H215.366H219.136V236.786V242.207H221.188H223.285L226.553 236.786L229.821 231.364H233.676C235.813 231.364 237.571 231.488 237.571 231.612C237.571 231.904 232.042 240.949 230.363 243.327L229.148 245.121L230.782 247.495C233.043 250.87 238.408 259.582 238.408 259.875C238.408 259.998 236.44 260.122 234.049 260.122H229.691L228.017 257.456C227.056 255.999 225.631 253.452 224.75 251.787C223.45 249.2 223.116 248.828 222.319 249.036C221.856 249.16 220.934 249.284 220.307 249.284H219.131V254.706V260.127H215.361H211.59V254.498V248.868H209.493C207.774 248.868 207.356 249.036 206.938 249.824C206.689 250.325 205.219 252.867 203.71 255.454L200.985 260.122H196.672C194.286 260.122 192.313 259.998 192.313 259.875L192.323 259.88Z" fill="#FFFFFE"/>
<path d="M300.761 249.21L300.636 238.248L295.944 238.124L291.207 238V234.704V231.369H304.407H317.607V234.704V238.04H313.208H308.81V249.086V260.132H304.83H300.85L300.766 249.21H300.761Z" fill="#FFFFFE"/>
<path d="M393.025 245.751V231.369H396.755H400.486L400.735 232.747C400.86 233.456 400.905 237.291 400.775 241.167L400.606 248.253L402.115 246.588C402.912 245.671 405.97 241.875 408.859 238.168L414.139 231.374H417.785H421.432L421.681 232.668C421.805 233.376 421.93 239.878 421.93 247.049V260.137H417.95H413.97V251.757C413.97 247.044 413.801 243.461 413.591 243.545C413.382 243.63 410.364 247.381 406.887 251.926L400.516 260.137H396.785H393.015V245.756L393.025 245.751Z" fill="#FFFFFE"/>
<path d="M550.151 245.751V231.285L559.914 231.453C569.089 231.577 569.762 231.622 571.605 232.539C574.578 233.996 575.5 235.542 575.5 238.956C575.5 241.667 575.415 241.831 573.951 243.293L572.402 244.834L573.996 245.959C576.172 247.545 577.094 249.671 576.885 252.461C576.636 255.256 575.166 257.253 572.148 258.839C570.095 259.924 569.926 259.924 560.123 260.048L550.151 260.172V245.746V245.751ZM564.313 254.379C566.489 254.294 567.122 254.131 567.959 253.254C569.259 252.005 569.299 250.503 568.043 249.041C567.122 248.001 566.828 247.916 562.385 247.708L557.693 247.5V251.004V254.508L559.705 254.468C560.796 254.468 562.848 254.428 564.313 254.384V254.379ZM566.868 242.416C568.253 241.038 568.377 239.581 567.246 238.248C566.285 237.162 565.991 237.078 562.011 236.87L557.777 236.662L557.608 239.913C557.568 241.662 557.568 243.208 557.693 243.332C557.817 243.417 559.745 243.456 561.966 243.372C565.403 243.288 566.2 243.124 566.868 242.416Z" fill="#FFFFFE"/>
<path d="M582.837 245.751V231.369H586.608H590.379V239.789C590.379 247.753 590.419 248.125 591.131 247.5C591.509 247.123 594.483 243.372 597.711 239.12L603.578 231.409L607.474 231.369H611.329V245.751V260.132H607.558H603.788V251.589C603.788 246.876 603.663 243.045 603.494 243.045C603.285 243.045 600.266 246.92 596.749 251.589L590.379 260.132H586.608H582.837V245.751Z" fill="#FFFFFE"/>
<path d="M403.5 228.074C400.402 227.404 398.554 225.948 397.423 223.321C396.247 220.486 396.462 220.11 399.226 220.11C401.612 220.11 401.697 220.149 402.369 221.567C403.121 223.152 404.421 223.861 406.558 223.861C408.232 223.861 409.577 222.984 410.413 221.319C411.041 220.149 411.21 220.11 413.766 220.11C415.275 220.11 416.49 220.278 416.49 220.486C416.49 221.279 415.19 223.861 414.144 225.07C413.517 225.819 412.301 226.78 411.42 227.236C409.616 228.153 405.721 228.569 403.5 228.069V228.074Z" fill="#FFFFFE"/>
<path d="M568.382 188.428C486.718 188.18 493.422 188.388 485.627 185.841C479.047 183.715 471.506 179.002 466.729 174.001C460.612 167.539 456.254 158.118 455.039 148.737C454.789 146.571 454.62 129.771 454.62 103.714V62.1104H474.524H494.429L494.513 105.215C494.638 147.989 494.638 148.36 495.519 149.53C495.983 150.154 497.193 151.116 498.199 151.656L500.042 152.573H565.867H631.691L635.631 164.12C637.808 170.458 640.578 178.501 641.748 181.921C643.76 187.714 644.009 189.007 643.257 188.76C643.088 188.675 609.401 188.551 568.382 188.428Z" fill="#FFFFFE"/>
<path d="M15.5012 157.077C15.5012 139.817 15.4165 108.635 15.3318 87.7514C15.2073 66.9075 15.2471 48.7298 15.3717 47.4413L15.6207 45.0675L26.6388 45.3153C32.7157 45.4392 37.7017 45.4392 37.7017 45.2757C37.7017 45.1518 32.5911 38.9373 26.3897 31.4789L15.033 17.9744L15.1575 15.1398L15.282 12.3051L35.2709 12.1812L55.2151 12.0969L57.3121 14.4707C58.4876 15.8038 62.1287 20.1005 65.4411 24.0155C68.7087 27.9355 75.9561 36.4396 81.4901 42.9415C87.019 49.4435 94.9389 58.8247 99.0881 63.7458C111.825 78.9203 118.654 86.9238 118.992 87.0477C119.286 87.1716 124.9 80.7093 135.878 67.6608L139.191 63.7854H162.905H186.58L185.743 64.7419C184.613 65.9907 160.31 94.5061 139.445 119.017C130.1 130.024 121.722 139.861 120.84 140.862L119.207 142.656L114.763 137.527C110.574 132.606 94.904 114.141 76.8876 92.9649C72.2801 87.5433 65.3216 79.292 61.3866 74.6236L54.2637 66.1592L54.1392 127.313L54.0545 188.428H34.7778H15.5012V157.077Z" fill="#FFFFFE"/>
<path d="M184.279 184.175C184.194 180.756 184.194 123.354 184.319 88.3362L184.359 81.8342L191.985 72.9139C205.688 56.8622 221.567 38.5209 222.235 37.9808C222.862 37.4802 222.907 44.111 222.907 112.937V188.432H203.675H184.399L184.274 184.18L184.279 184.175Z" fill="#FFFFFE"/>
<path d="M456.09 46.6088C456.174 46.3164 456.717 44.4828 457.345 42.5252C461.658 28.5996 471.715 18.3461 485.418 13.8017C494.344 10.8828 487.515 11.0909 568.547 10.967C608.774 10.8828 641.788 10.967 641.997 11.1752C642.46 11.636 640.109 19.1787 634.705 34.8141L630.431 47.1143H543.153C473.558 47.1143 455.915 46.9904 456.085 46.6137L456.09 46.6088Z" fill="#FFFFFE"/>
<path d="M290.161 188.428C285.005 188.011 281.698 187.342 277.464 185.841C269.798 183.175 264.434 179.755 259.029 174.041C254.965 169.749 252.24 165.453 250.019 159.868C246.876 151.988 247.045 154.867 246.92 106.009L246.751 62.1105H266.695H286.599V103.714C286.599 131.02 286.769 145.818 287.018 146.819C287.561 148.697 289.155 150.695 290.958 151.656C292.173 152.325 296.825 152.365 358.292 152.489L424.285 152.573L429.859 169.581C432.957 178.918 435.558 187.05 435.642 187.714L435.851 188.839L364.916 188.755C325.865 188.755 292.263 188.586 290.166 188.423L290.161 188.428Z" fill="#E34A05"/>
<path d="M145.267 56.6095C145.437 56.3171 150.502 50.3554 156.494 43.3529C162.487 36.3504 170.865 26.5529 175.139 21.5525L182.849 12.5083L203.59 12.5925L224.371 12.7164L224.496 14.3816C224.58 15.2984 224.536 16.8396 224.371 17.7564C224.077 19.6743 224.959 18.5494 208.701 37.7232C203.042 44.3936 197.05 51.4407 195.337 53.4825L192.278 57.1101H168.603C149.75 57.1101 144.973 56.9862 145.267 56.6095Z" fill="#E34A05"/>
<path d="M249.057 45.6474C249.979 40.8106 253.082 33.7685 256.22 29.3876C258.397 26.3448 263.343 21.5922 266.486 19.5505C271.935 15.9674 278.889 13.212 285.972 11.7947C289.493 11.1257 294.644 11.0464 362.356 10.9621C421.815 10.8382 434.93 10.9225 434.93 11.3784C434.93 11.6708 434.427 13.3805 433.839 15.2142C433.251 17.0478 432.036 20.7993 431.159 23.5497C430.278 26.3002 428.226 32.7228 426.552 37.8471L423.578 47.0995H336.176H248.813L249.062 45.6425L249.057 45.6474Z" fill="#E34A05"/>
</g>
<defs>
<clipPath id="clip0_3067_72">
<rect width="657" height="280" fill="white"/>
</clipPath>
</defs>
</svg>
